<svg xmlns="http://www.w3.org/2000/svg" width="82" height="81" fill="none" xmlns:v="https://vecta.io/nano"><circle cx="41" cy="40.5" r="40.5" fill="#f2b04d"/><circle cx="41" cy="40.5" r="40.5" fill="url(#A)" fill-opacity=".2"/><path d="M57.4 36.378a5.73 5.73 0 0 0-3.539-5.297c-1.048-.434-2.2-.547-3.312-.326s-2.134.767-2.936 1.569a5.73 5.73 0 0 0-1.569 2.936c-.221 1.113-.108 2.265.326 3.313a5.73 5.73 0 0 0 5.297 3.539c1.52 0 2.979-.604 4.054-1.679S57.4 37.9 57.4 36.379zm-7.644 0a1.91 1.91 0 0 1 3.263-1.352 1.91 1.91 0 0 1-1.352 3.263 1.91 1.91 0 0 1-1.911-1.911zm1.911 7.644a9.57 9.57 0 0 0-3.685.732c-1.168.485-2.228 1.198-3.118 2.096-1.101-2.366-2.975-4.285-5.314-5.441s-5.002-1.481-7.55-.92a11.47 11.47 0 0 0-6.465 4.007c-1.637 2.032-2.531 4.561-2.535 7.17V57.4h38.222v-3.822c0-2.534-1.007-4.965-2.799-6.757s-4.222-2.799-6.757-2.799zm-5.733 9.556c0-1.521.604-2.979 1.679-4.054s2.533-1.679 4.054-1.679 2.979.604 4.054 1.679 1.679 2.534 1.679 4.054H45.933zM34.467 38.289c4.222 0 7.644-3.422 7.644-7.644S38.689 23 34.467 23s-7.645 3.422-7.645 7.644 3.423 7.644 7.645 7.644z" fill="#fff"/><defs><linearGradient id="A" x1="41" y1="21.5" x2="41" y2="101.5" gradientUnits="userSpaceOnUse"><stop stop-opacity="0"/><stop offset="1"/></linearGradient></defs></svg>