<svg xmlns="http://www.w3.org/2000/svg" xmlns:xlink="http://www.w3.org/1999/xlink" width="52" height="52" fill="none"  ><circle cx="26" cy="26" r="26" fill="#2e2ba6"/><g fill-rule="evenodd"><use xlink:href="#B" fill="#d23c8f"/><use xlink:href="#B" fill="url(#A)" fill-opacity=".2"/></g><defs><linearGradient id="A" x1="26.406" y1="9.75" x2="26.813" y2="37.375" gradientUnits="userSpaceOnUse"><stop stop-opacity="0"/><stop offset="1"/></linearGradient><path id="B" d="M32.738 12.373c1.619 1.619 2.622 3.857 2.622 6.33s-1.003 4.711-2.622 6.33-3.859 2.623-6.332 2.623-4.712-1.003-6.332-2.623-2.622-3.857-2.622-6.33 1.003-4.712 2.622-6.33 3.859-2.623 6.332-2.623 4.711 1.003 6.332 2.623zm-6.332 29.422c-7.363 0-11.781-2.042-11.781-4.084 0-4.084 4.418-8.168 11.781-8.168 7.159 0 11.781 4.084 11.781 8.168 0 2.042-4.873 4.084-11.781 4.084z"/></defs></svg>