<svg xmlns="http://www.w3.org/2000/svg" width="160" height="28" fill="#272d3d" xmlns:v="https://vecta.io/nano"><path d="M3.073 27.523c1.779 0 2.729-.881 3.397-3.151l1.072-3.19h9.28l1.051 3.19c.667 2.211 1.698 3.151 3.477 3.151 1.921 0 3.174-1.096 3.174-2.799 0-.685-.182-1.468-.546-2.564L17.892 4.841C16.78 1.651 15.244.399 12.333.399s-4.488 1.272-5.58 4.442L.647 22.161C.182 23.472 0 24.216 0 24.861c0 1.566 1.253 2.662 3.073 2.662zm5.843-11.018L12.05 6.387h.323l3.093 10.118h-6.55zm29.533 7.632V11.339h.263l9.381 13.601c1.375 1.957 2.285 2.564 3.781 2.564 2.042 0 3.134-1.252 3.134-3.601V3.765c0-2.114-1.173-3.366-3.134-3.366-1.941 0-3.073 1.252-3.073 3.366v12.642h-.263l-9.3-13.425C37.904 1.103 37.054.399 35.579.399c-2.204 0-3.316 1.292-3.316 3.797v19.942c0 2.094 1.152 3.366 3.114 3.366s3.073-1.252 3.073-3.366zm25.066-8.434c0 7.613 4.508 12.192 12.171 12.192 6.813 0 11.403-3.992 11.403-9.883v-1.624c0-2.485-1.173-3.601-3.841-3.601h-4.953c-1.779 0-2.729.802-2.729 2.27 0 1.487.97 2.309 2.729 2.309h2.487v1.135c0 2.446-1.941 4.09-4.832 4.09-3.72 0-5.762-2.446-5.762-6.908v-3.229c0-4.521 2.002-6.889 5.823-6.889 2.608 0 4.124 1.526 5.762 3.112.586.568 1.193.822 1.981.822 1.597 0 2.709-1.057 2.709-2.603s-1.193-3.229-3.012-4.501C81.427.927 78.658.105 75.524.105c-7.44 0-12.009 4.638-12.009 12.036v3.562zm35.336 11.8c2.122 0 3.315-1.252 3.315-3.483V3.882c0-2.211-1.213-3.483-3.356-3.483s-3.336 1.252-3.336 3.483V24.02c0 2.211 1.233 3.483 3.376 3.483zm12.813-3.894c0 2.407 1.355 3.699 3.882 3.699h12.414c1.637 0 2.729-.998 2.729-2.564 0-1.546-1.092-2.564-2.709-2.564h-9.705v-5.949h9.3c1.436 0 2.406-.92 2.406-2.348 0-1.409-.97-2.388-2.406-2.388h-9.3V5.722h9.786c1.536 0 2.628-1.037 2.628-2.544 0-1.526-1.092-2.583-2.628-2.583h-12.515c-2.527 0-3.882 1.311-3.882 3.699V23.61zm26.117-1.801c0 1.096.647 2.231 1.82 3.307 1.88 1.722 5.256 2.779 9.057 2.779 6.914 0 11.342-3.386 11.342-8.65 0-4.051-2.487-6.497-7.622-7.495l-3.841-.802c-2.568-.489-3.74-1.527-3.74-2.994 0-1.683 1.536-2.759 3.982-2.759 2.083 0 3.72.783 5.136 2.29.849.783 1.718 1.155 2.587 1.155 1.557 0 2.608-.979 2.608-2.407 0-1.194-.626-2.368-1.819-3.425-1.86-1.703-5.054-2.701-8.592-2.701-6.47 0-10.594 3.249-10.594 8.376 0 4.09 2.446 6.576 7.419 7.593l3.801.841c2.912.607 4.125 1.526 4.125 3.014 0 1.84-1.557 2.857-4.448 2.857-2.042 0-4.044-.822-5.702-2.329-1.111-.959-1.94-1.311-2.911-1.311-1.435 0-2.608 1.096-2.608 2.662z"/></svg>