<svg xmlns="http://www.w3.org/2000/svg" width="82" height="81" fill="none" xmlns:v="https://vecta.io/nano"><circle cx="41" cy="40.5" r="40.5" fill="#d23c8f"/><circle cx="41" cy="40.5" r="40.5" fill="url(#B)" fill-opacity=".2"/><g filter="url(#A)"><path d="M24 58h34V24H24v34zm3.4-23.8h27.2v20.4h-8.5a8.5 8.5 0 0 0-4.25-7.361c.55-.845.845-1.831.85-2.839a5.1 5.1 0 0 0-5.1-5.1 5.1 5.1 0 0 0-5.1 5.1c.005 1.008.3 1.994.85 2.839A8.5 8.5 0 0 0 29.1 54.6h-1.7V34.2z" fill="#fff"/><path d="M52.9 35.9h-8.5v3.4h8.5v-3.4z" fill="#fff"/><path d="M52.9 41h-5.1v3.4h5.1V41z" fill="#fff"/></g><defs><filter id="A" x="22" y="23" width="38" height="38" filterUnits="userSpaceOnUse" color-interpolation-filters="sRGB"><feFlood flood-opacity="0" result="A"/><feColorMatrix in="SourceAlpha" values="0 0 0 0 0 0 0 0 0 0 0 0 0 0 0 0 0 0 127 0" result="B"/><feOffset dy="1"/><feGaussianBlur stdDeviation="1"/><feComposite in2="B" operator="out"/><feColorMatrix values="0 0 0 0 0 0 0 0 0 0 0 0 0 0 0 0 0 0 0.25 0"/><feBlend in2="A"/><feBlend in="SourceGraphic"/></filter><linearGradient id="B" x1="41" y1="21.5" x2="41" y2="101.5" gradientUnits="userSpaceOnUse"><stop stop-opacity="0"/><stop offset="1"/></linearGradient></defs></svg>